<svg width="113" height="96" viewBox="0 0 113 96" fill="none" xmlns="http://www.w3.org/2000/svg">
<g opacity="0.26">
<mask id="mask0" style="mask-type:alpha" maskUnits="userSpaceOnUse" x="11" y="0" width="11" height="11">
<path d="M16.5095 10.425C19.397 10.425 21.7378 8.09121 21.7378 5.21245C21.7378 2.33368 19.397 0 16.5095 0C13.6219 0 11.2811 2.33368 11.2811 5.21245C11.2811 8.09121 13.6219 10.425 16.5095 10.425Z" fill="url(#paint0_linear)"/>
</mask>
<g mask="url(#mask0)">
<path d="M16.5095 10.425C19.397 10.425 21.7378 8.09121 21.7378 5.21245C21.7378 2.33368 19.397 0 16.5095 0C13.6219 0 11.2811 2.33368 11.2811 5.21245C11.2811 8.09121 13.6219 10.425 16.5095 10.425Z" fill="url(#paint1_linear)"/>
</g>
<mask id="mask1" style="mask-type:alpha" maskUnits="userSpaceOnUse" x="41" y="0" width="12" height="11">
<path d="M46.7905 10.425C49.6781 10.425 52.0189 8.09121 52.0189 5.21245C52.0189 2.33368 49.6781 0 46.7905 0C43.903 0 41.5621 2.33368 41.5621 5.21245C41.5621 8.09121 43.903 10.425 46.7905 10.425Z" fill="url(#paint2_linear)"/>
</mask>
<g mask="url(#mask1)">
<path d="M46.7905 10.425C49.6781 10.425 52.0189 8.09121 52.0189 5.21245C52.0189 2.33368 49.6781 0 46.7905 0C43.903 0 41.5621 2.33368 41.5621 5.21245C41.5621 8.09121 43.903 10.425 46.7905 10.425Z" fill="url(#paint3_linear)"/>
</g>
<mask id="mask2" style="mask-type:alpha" maskUnits="userSpaceOnUse" x="71" y="0" width="12" height="11">
<path d="M77.0716 10.425C79.9592 10.425 82.3 8.09121 82.3 5.21245C82.3 2.33368 79.9592 0 77.0716 0C74.184 0 71.8432 2.33368 71.8432 5.21245C71.8432 8.09121 74.184 10.425 77.0716 10.425Z" fill="url(#paint4_linear)"/>
</mask>
<g mask="url(#mask2)">
<path d="M77.0716 10.425C79.9592 10.425 82.3 8.09121 82.3 5.21245C82.3 2.33368 79.9592 0 77.0716 0C74.184 0 71.8432 2.33368 71.8432 5.21245C71.8432 8.09121 74.184 10.425 77.0716 10.425Z" fill="url(#paint5_linear)"/>
</g>
<mask id="mask3" style="mask-type:alpha" maskUnits="userSpaceOnUse" x="102" y="0" width="11" height="11">
<path d="M107.353 10.425C110.24 10.425 112.581 8.09121 112.581 5.21245C112.581 2.33368 110.24 0 107.353 0C104.465 0 102.124 2.33368 102.124 5.21245C102.124 8.09121 104.465 10.425 107.353 10.425Z" fill="url(#paint6_linear)"/>
</mask>
<g mask="url(#mask3)">
<path d="M107.353 10.425C110.24 10.425 112.581 8.09121 112.581 5.21245C112.581 2.33368 110.24 0 107.353 0C104.465 0 102.124 2.33368 102.124 5.21245C102.124 8.09121 104.465 10.425 107.353 10.425Z" fill="url(#paint7_linear)"/>
</g>
<mask id="mask4" style="mask-type:alpha" maskUnits="userSpaceOnUse" x="11" y="26" width="11" height="11">
<path d="M16.5095 36.5958C19.397 36.5958 21.7378 34.2621 21.7378 31.3833C21.7378 28.5046 19.397 26.1709 16.5095 26.1709C13.6219 26.1709 11.2811 28.5046 11.2811 31.3833C11.2811 34.2621 13.6219 36.5958 16.5095 36.5958Z" fill="url(#paint8_linear)"/>
</mask>
<g mask="url(#mask4)">
<path d="M16.5095 36.5958C19.397 36.5958 21.7378 34.2621 21.7378 31.3833C21.7378 28.5046 19.397 26.1709 16.5095 26.1709C13.6219 26.1709 11.2811 28.5046 11.2811 31.3833C11.2811 34.2621 13.6219 36.5958 16.5095 36.5958Z" fill="url(#paint9_linear)"/>
</g>
<mask id="mask5" style="mask-type:alpha" maskUnits="userSpaceOnUse" x="41" y="26" width="12" height="11">
<path d="M46.7905 36.5958C49.6781 36.5958 52.0189 34.2621 52.0189 31.3833C52.0189 28.5046 49.6781 26.1709 46.7905 26.1709C43.903 26.1709 41.5621 28.5046 41.5621 31.3833C41.5621 34.2621 43.903 36.5958 46.7905 36.5958Z" fill="url(#paint10_linear)"/>
</mask>
<g mask="url(#mask5)">
<path d="M46.7905 36.5958C49.6781 36.5958 52.0189 34.2621 52.0189 31.3833C52.0189 28.5046 49.6781 26.1709 46.7905 26.1709C43.903 26.1709 41.5621 28.5046 41.5621 31.3833C41.5621 34.2621 43.903 36.5958 46.7905 36.5958Z" fill="url(#paint11_linear)"/>
</g>
<mask id="mask6" style="mask-type:alpha" maskUnits="userSpaceOnUse" x="71" y="26" width="12" height="11">
<path d="M77.0716 36.5958C79.9592 36.5958 82.3 34.2621 82.3 31.3833C82.3 28.5046 79.9592 26.1709 77.0716 26.1709C74.184 26.1709 71.8432 28.5046 71.8432 31.3833C71.8432 34.2621 74.184 36.5958 77.0716 36.5958Z" fill="url(#paint12_linear)"/>
</mask>
<g mask="url(#mask6)">
<path d="M77.0716 36.5958C79.9592 36.5958 82.3 34.2621 82.3 31.3833C82.3 28.5046 79.9592 26.1709 77.0716 26.1709C74.184 26.1709 71.8432 28.5046 71.8432 31.3833C71.8432 34.2621 74.184 36.5958 77.0716 36.5958Z" fill="url(#paint13_linear)"/>
</g>
<mask id="mask7" style="mask-type:alpha" maskUnits="userSpaceOnUse" x="102" y="26" width="11" height="11">
<path d="M107.353 36.5958C110.24 36.5958 112.581 34.2621 112.581 31.3833C112.581 28.5046 110.24 26.1709 107.353 26.1709C104.465 26.1709 102.124 28.5046 102.124 31.3833C102.124 34.2621 104.465 36.5958 107.353 36.5958Z" fill="url(#paint14_linear)"/>
</mask>
<g mask="url(#mask7)">
<path d="M107.353 36.5958C110.24 36.5958 112.581 34.2621 112.581 31.3833C112.581 28.5046 110.24 26.1709 107.353 26.1709C104.465 26.1709 102.124 28.5046 102.124 31.3833C102.124 34.2621 104.465 36.5958 107.353 36.5958Z" fill="url(#paint15_linear)"/>
</g>
<mask id="mask8" style="mask-type:alpha" maskUnits="userSpaceOnUse" x="11" y="52" width="11" height="11">
<path d="M16.5095 62.7126C19.397 62.7126 21.7378 60.3789 21.7378 57.5001C21.7378 54.6213 19.397 52.2876 16.5095 52.2876C13.6219 52.2876 11.2811 54.6213 11.2811 57.5001C11.2811 60.3789 13.6219 62.7126 16.5095 62.7126Z" fill="url(#paint16_linear)"/>
</mask>
<g mask="url(#mask8)">
<path d="M16.5095 62.7126C19.397 62.7126 21.7378 60.3789 21.7378 57.5001C21.7378 54.6213 19.397 52.2876 16.5095 52.2876C13.6219 52.2876 11.2811 54.6213 11.2811 57.5001C11.2811 60.3789 13.6219 62.7126 16.5095 62.7126Z" fill="url(#paint17_linear)"/>
</g>
<mask id="mask9" style="mask-type:alpha" maskUnits="userSpaceOnUse" x="41" y="52" width="12" height="11">
<path d="M46.7905 62.7126C49.6781 62.7126 52.0189 60.3789 52.0189 57.5001C52.0189 54.6213 49.6781 52.2876 46.7905 52.2876C43.903 52.2876 41.5621 54.6213 41.5621 57.5001C41.5621 60.3789 43.903 62.7126 46.7905 62.7126Z" fill="url(#paint18_linear)"/>
</mask>
<g mask="url(#mask9)">
<path d="M46.7905 62.7126C49.6781 62.7126 52.0189 60.3789 52.0189 57.5001C52.0189 54.6213 49.6781 52.2876 46.7905 52.2876C43.903 52.2876 41.5621 54.6213 41.5621 57.5001C41.5621 60.3789 43.903 62.7126 46.7905 62.7126Z" fill="url(#paint19_linear)"/>
</g>
<mask id="mask10" style="mask-type:alpha" maskUnits="userSpaceOnUse" x="71" y="52" width="12" height="11">
<path d="M77.0716 62.7126C79.9592 62.7126 82.3 60.3789 82.3 57.5001C82.3 54.6213 79.9592 52.2876 77.0716 52.2876C74.184 52.2876 71.8432 54.6213 71.8432 57.5001C71.8432 60.3789 74.184 62.7126 77.0716 62.7126Z" fill="url(#paint20_linear)"/>
</mask>
<g mask="url(#mask10)">
<path d="M77.0716 62.7126C79.9592 62.7126 82.3 60.3789 82.3 57.5001C82.3 54.6213 79.9592 52.2876 77.0716 52.2876C74.184 52.2876 71.8432 54.6213 71.8432 57.5001C71.8432 60.3789 74.184 62.7126 77.0716 62.7126Z" fill="url(#paint21_linear)"/>
</g>
<mask id="mask11" style="mask-type:alpha" maskUnits="userSpaceOnUse" x="102" y="52" width="11" height="11">
<path d="M107.353 62.7126C110.24 62.7126 112.581 60.3789 112.581 57.5001C112.581 54.6213 110.24 52.2876 107.353 52.2876C104.465 52.2876 102.124 54.6213 102.124 57.5001C102.124 60.3789 104.465 62.7126 107.353 62.7126Z" fill="url(#paint22_linear)"/>
</mask>
<g mask="url(#mask11)">
<path d="M107.353 62.7126C110.24 62.7126 112.581 60.3789 112.581 57.5001C112.581 54.6213 110.24 52.2876 107.353 52.2876C104.465 52.2876 102.124 54.6213 102.124 57.5001C102.124 60.3789 104.465 62.7126 107.353 62.7126Z" fill="url(#paint23_linear)"/>
</g>
<mask id="mask12" style="mask-type:alpha" maskUnits="userSpaceOnUse" x="11" y="78" width="11" height="11">
<path d="M16.5095 88.8835C19.397 88.8835 21.7378 86.5497 21.7378 83.6709C21.7378 80.7922 19.397 78.4585 16.5095 78.4585C13.6219 78.4585 11.2811 80.7922 11.2811 83.6709C11.2811 86.5497 13.6219 88.8835 16.5095 88.8835Z" fill="url(#paint24_linear)"/>
</mask>
<g mask="url(#mask12)">
<path d="M16.5095 88.8835C19.397 88.8835 21.7378 86.5497 21.7378 83.6709C21.7378 80.7922 19.397 78.4585 16.5095 78.4585C13.6219 78.4585 11.2811 80.7922 11.2811 83.6709C11.2811 86.5497 13.6219 88.8835 16.5095 88.8835Z" fill="url(#paint25_linear)"/>
</g>
<mask id="mask13" style="mask-type:alpha" maskUnits="userSpaceOnUse" x="41" y="78" width="12" height="11">
<path d="M46.7905 88.8835C49.6781 88.8835 52.0189 86.5497 52.0189 83.6709C52.0189 80.7922 49.6781 78.4585 46.7905 78.4585C43.903 78.4585 41.5621 80.7922 41.5621 83.6709C41.5621 86.5497 43.903 88.8835 46.7905 88.8835Z" fill="url(#paint26_linear)"/>
</mask>
<g mask="url(#mask13)">
<path d="M46.7905 88.8835C49.6781 88.8835 52.0189 86.5497 52.0189 83.6709C52.0189 80.7922 49.6781 78.4585 46.7905 78.4585C43.903 78.4585 41.5621 80.7922 41.5621 83.6709C41.5621 86.5497 43.903 88.8835 46.7905 88.8835Z" fill="url(#paint27_linear)"/>
</g>
<mask id="mask14" style="mask-type:alpha" maskUnits="userSpaceOnUse" x="71" y="78" width="12" height="11">
<path d="M77.0716 88.8835C79.9592 88.8835 82.3 86.5497 82.3 83.6709C82.3 80.7922 79.9592 78.4585 77.0716 78.4585C74.184 78.4585 71.8432 80.7922 71.8432 83.6709C71.8432 86.5497 74.184 88.8835 77.0716 88.8835Z" fill="url(#paint28_linear)"/>
</mask>
<g mask="url(#mask14)">
<path d="M77.0716 88.8835C79.9592 88.8835 82.3 86.5497 82.3 83.6709C82.3 80.7922 79.9592 78.4585 77.0716 78.4585C74.184 78.4585 71.8432 80.7922 71.8432 83.6709C71.8432 86.5497 74.184 88.8835 77.0716 88.8835Z" fill="url(#paint29_linear)"/>
</g>
<mask id="mask15" style="mask-type:alpha" maskUnits="userSpaceOnUse" x="102" y="78" width="11" height="11">
<path d="M107.353 88.8835C110.24 88.8835 112.581 86.5497 112.581 83.6709C112.581 80.7922 110.24 78.4585 107.353 78.4585C104.465 78.4585 102.124 80.7922 102.124 83.6709C102.124 86.5497 104.465 88.8835 107.353 88.8835Z" fill="url(#paint30_linear)"/>
</mask>
<g mask="url(#mask15)">
<path d="M107.353 88.8835C110.24 88.8835 112.581 86.5497 112.581 83.6709C112.581 80.7922 110.24 78.4585 107.353 78.4585C104.465 78.4585 102.124 80.7922 102.124 83.6709C102.124 86.5497 104.465 88.8835 107.353 88.8835Z" fill="url(#paint31_linear)"/>
</g>
</g>
<defs>
<linearGradient id="paint0_linear" x1="66.2771" y1="131.134" x2="-5.12449" y2="-50.67" gradientUnits="userSpaceOnUse">
<stop stop-color="white"/>
<stop offset="1" stop-color="white"/>
</linearGradient>
<linearGradient id="paint1_linear" x1="66.2771" y1="131.134" x2="-5.12449" y2="-50.67" gradientUnits="userSpaceOnUse">
<stop stop-color="white"/>
<stop offset="1" stop-color="white"/>
</linearGradient>
<linearGradient id="paint2_linear" x1="96.5582" y1="131.134" x2="25.1566" y2="-50.67" gradientUnits="userSpaceOnUse">
<stop stop-color="white"/>
<stop offset="1" stop-color="white"/>
</linearGradient>
<linearGradient id="paint3_linear" x1="96.5582" y1="131.134" x2="25.1566" y2="-50.67" gradientUnits="userSpaceOnUse">
<stop stop-color="white"/>
<stop offset="1" stop-color="white"/>
</linearGradient>
<linearGradient id="paint4_linear" x1="126.839" y1="131.134" x2="55.4376" y2="-50.67" gradientUnits="userSpaceOnUse">
<stop stop-color="white"/>
<stop offset="1" stop-color="white"/>
</linearGradient>
<linearGradient id="paint5_linear" x1="126.839" y1="131.134" x2="55.4376" y2="-50.67" gradientUnits="userSpaceOnUse">
<stop stop-color="white"/>
<stop offset="1" stop-color="white"/>
</linearGradient>
<linearGradient id="paint6_linear" x1="157.12" y1="131.134" x2="85.7187" y2="-50.67" gradientUnits="userSpaceOnUse">
<stop stop-color="white"/>
<stop offset="1" stop-color="white"/>
</linearGradient>
<linearGradient id="paint7_linear" x1="157.12" y1="131.134" x2="85.7187" y2="-50.67" gradientUnits="userSpaceOnUse">
<stop stop-color="white"/>
<stop offset="1" stop-color="white"/>
</linearGradient>
<linearGradient id="paint8_linear" x1="66.2771" y1="157.303" x2="-5.12327" y2="-24.4991" gradientUnits="userSpaceOnUse">
<stop stop-color="white"/>
<stop offset="1" stop-color="white"/>
</linearGradient>
<linearGradient id="paint9_linear" x1="66.2771" y1="157.303" x2="-5.12327" y2="-24.4991" gradientUnits="userSpaceOnUse">
<stop stop-color="white"/>
<stop offset="1" stop-color="white"/>
</linearGradient>
<linearGradient id="paint10_linear" x1="96.5582" y1="157.303" x2="25.1578" y2="-24.4991" gradientUnits="userSpaceOnUse">
<stop stop-color="white"/>
<stop offset="1" stop-color="white"/>
</linearGradient>
<linearGradient id="paint11_linear" x1="96.5582" y1="157.303" x2="25.1578" y2="-24.4991" gradientUnits="userSpaceOnUse">
<stop stop-color="white"/>
<stop offset="1" stop-color="white"/>
</linearGradient>
<linearGradient id="paint12_linear" x1="126.839" y1="157.303" x2="55.4389" y2="-24.4991" gradientUnits="userSpaceOnUse">
<stop stop-color="white"/>
<stop offset="1" stop-color="white"/>
</linearGradient>
<linearGradient id="paint13_linear" x1="126.839" y1="157.303" x2="55.4389" y2="-24.4991" gradientUnits="userSpaceOnUse">
<stop stop-color="white"/>
<stop offset="1" stop-color="white"/>
</linearGradient>
<linearGradient id="paint14_linear" x1="157.12" y1="157.303" x2="85.7199" y2="-24.4991" gradientUnits="userSpaceOnUse">
<stop stop-color="white"/>
<stop offset="1" stop-color="white"/>
</linearGradient>
<linearGradient id="paint15_linear" x1="157.12" y1="157.303" x2="85.7199" y2="-24.4991" gradientUnits="userSpaceOnUse">
<stop stop-color="white"/>
<stop offset="1" stop-color="white"/>
</linearGradient>
<linearGradient id="paint16_linear" x1="66.2771" y1="183.421" x2="-5.12449" y2="1.61756" gradientUnits="userSpaceOnUse">
<stop stop-color="white"/>
<stop offset="1" stop-color="white"/>
</linearGradient>
<linearGradient id="paint17_linear" x1="66.2771" y1="183.421" x2="-5.12449" y2="1.61756" gradientUnits="userSpaceOnUse">
<stop stop-color="white"/>
<stop offset="1" stop-color="white"/>
</linearGradient>
<linearGradient id="paint18_linear" x1="96.5582" y1="183.421" x2="25.1566" y2="1.61756" gradientUnits="userSpaceOnUse">
<stop stop-color="white"/>
<stop offset="1" stop-color="white"/>
</linearGradient>
<linearGradient id="paint19_linear" x1="96.5582" y1="183.421" x2="25.1566" y2="1.61756" gradientUnits="userSpaceOnUse">
<stop stop-color="white"/>
<stop offset="1" stop-color="white"/>
</linearGradient>
<linearGradient id="paint20_linear" x1="126.839" y1="183.421" x2="55.4376" y2="1.61756" gradientUnits="userSpaceOnUse">
<stop stop-color="white"/>
<stop offset="1" stop-color="white"/>
</linearGradient>
<linearGradient id="paint21_linear" x1="126.839" y1="183.421" x2="55.4376" y2="1.61756" gradientUnits="userSpaceOnUse">
<stop stop-color="white"/>
<stop offset="1" stop-color="white"/>
</linearGradient>
<linearGradient id="paint22_linear" x1="157.12" y1="183.421" x2="85.7187" y2="1.61756" gradientUnits="userSpaceOnUse">
<stop stop-color="white"/>
<stop offset="1" stop-color="white"/>
</linearGradient>
<linearGradient id="paint23_linear" x1="157.12" y1="183.421" x2="85.7187" y2="1.61756" gradientUnits="userSpaceOnUse">
<stop stop-color="white"/>
<stop offset="1" stop-color="white"/>
</linearGradient>
<linearGradient id="paint24_linear" x1="66.2771" y1="209.592" x2="-5.12449" y2="27.7885" gradientUnits="userSpaceOnUse">
<stop stop-color="white"/>
<stop offset="1" stop-color="white"/>
</linearGradient>
<linearGradient id="paint25_linear" x1="66.2771" y1="209.592" x2="-5.12449" y2="27.7885" gradientUnits="userSpaceOnUse">
<stop stop-color="white"/>
<stop offset="1" stop-color="white"/>
</linearGradient>
<linearGradient id="paint26_linear" x1="96.5582" y1="209.592" x2="25.1566" y2="27.7885" gradientUnits="userSpaceOnUse">
<stop stop-color="white"/>
<stop offset="1" stop-color="white"/>
</linearGradient>
<linearGradient id="paint27_linear" x1="96.5582" y1="209.592" x2="25.1566" y2="27.7885" gradientUnits="userSpaceOnUse">
<stop stop-color="white"/>
<stop offset="1" stop-color="white"/>
</linearGradient>
<linearGradient id="paint28_linear" x1="126.839" y1="209.592" x2="55.4376" y2="27.7885" gradientUnits="userSpaceOnUse">
<stop stop-color="white"/>
<stop offset="1" stop-color="white"/>
</linearGradient>
<linearGradient id="paint29_linear" x1="126.839" y1="209.592" x2="55.4376" y2="27.7885" gradientUnits="userSpaceOnUse">
<stop stop-color="white"/>
<stop offset="1" stop-color="white"/>
</linearGradient>
<linearGradient id="paint30_linear" x1="157.12" y1="209.592" x2="85.7187" y2="27.7885" gradientUnits="userSpaceOnUse">
<stop stop-color="white"/>
<stop offset="1" stop-color="white"/>
</linearGradient>
<linearGradient id="paint31_linear" x1="157.12" y1="209.592" x2="85.7187" y2="27.7885" gradientUnits="userSpaceOnUse">
<stop stop-color="white"/>
<stop offset="1" stop-color="white"/>
</linearGradient>
</defs>
</svg>
